<?xml version="1.0" standalone="no"?>
<!DOCTYPE svg PUBLIC "-//W3C//DTD SVG 20010904//EN"
 "http://www.w3.org/TR/2001/REC-SVG-20010904/DTD/svg10.dtd">
<svg version="1.0" xmlns="http://www.w3.org/2000/svg"
 width="225.000000pt" height="225.000000pt" viewBox="0 0 225.000000 225.000000"
 preserveAspectRatio="xMidYMid meet">

<g transform="translate(0.000000,225.000000) scale(0.100000,-0.100000)"
fill="#000000" stroke="none">
<path d="M1060 2215 c-63 -20 -123 -74 -149 -134 l-21 -50 -133 -3 -132 -3 0
-130 c1 -87 5 -138 14 -153 27 -50 49 -52 492 -52 522 0 494 -12 494 209 l0
126 -137 3 c-115 2 -138 5 -138 18 0 29 -40 92 -77 123 -36 30 -117 62 -152
60 -9 0 -36 -7 -61 -14z m156 -86 c37 -23 74 -91 74 -137 l0 -31 133 -3 132
-3 0 -80 c-1 -128 48 -115 -430 -115 -478 0 -430 -13 -430 115 l0 80 133 3
132 3 0 29 c0 132 143 209 256 139z"/>
<path d="M1071 2074 c-13 -9 -29 -32 -37 -50 -12 -29 -12 -39 0 -68 14 -34 59
-66 91 -66 32 0 77 32 91 66 12 29 12 39 0 68 -17 41 -51 66 -91 66 -17 0 -41
-7 -54 -16z m83 -70 c7 -19 -10 -44 -29 -44 -19 0 -36 25 -29 44 3 9 16 16 29
16 13 0 26 -7 29 -16z"/>
<path d="M290 990 l0 -970 835 0 835 0 0 970 0 970 -115 0 -115 0 0 -35 0 -35
80 0 80 0 0 -900 0 -900 -765 0 -765 0 0 900 0 900 80 0 80 0 0 35 0 35 -115
0 -115 0 0 -970z"/>
<path d="M660 1325 l0 -35 465 0 465 0 0 35 0 35 -465 0 -465 0 0 -35z"/>
<path d="M660 925 l0 -35 465 0 465 0 0 35 0 35 -465 0 -465 0 0 -35z"/>
<path d="M660 525 l0 -35 465 0 465 0 0 35 0 35 -465 0 -465 0 0 -35z"/>
</g>
</svg>
