<?xml version="1.0" standalone="no"?>
<!DOCTYPE svg PUBLIC "-//W3C//DTD SVG 20010904//EN"
 "http://www.w3.org/TR/2001/REC-SVG-20010904/DTD/svg10.dtd">
<svg version="1.0" xmlns="http://www.w3.org/2000/svg"
 width="1024.000000pt" height="1024.000000pt" viewBox="0 0 1024.000000 1024.000000"
 preserveAspectRatio="xMidYMid meet">

<g transform="translate(0.000000,1024.000000) scale(0.100000,-0.100000)"
fill="#000000" stroke="none">
<path d="M4022 7127 l-342 -342 -183 183 -182 182 -113 -113 -112 -112 295
-295 295 -295 455 455 455 455 -113 113 -112 112 -343 -343z"/>
<path d="M4022 5207 l-342 -342 -183 183 -182 182 -113 -113 -112 -112 295
-295 295 -295 455 455 455 455 -113 113 -112 112 -343 -343z"/>
<path d="M4022 3287 l-342 -342 -183 183 -182 182 -113 -113 -112 -112 295
-295 295 -295 455 455 455 455 -113 113 -112 112 -343 -343z"/>
<path d="M1600 1683 c0 -50 20 -180 35 -221 l14 -37 0 55 c0 30 -11 96 -24
145 -16 59 -24 79 -25 58z"/>
<path d="M8612 1612 c-17 -71 -21 -105 -14 -127 9 -30 9 -30 20 20 12 54 27
205 21 205 -2 0 -14 -44 -27 -98z"/>
</g>
</svg>
